<svg width="400" height="440" viewBox="0 0 400 440" xmlns="http://www.w3.org/2000/svg">
  <defs>
    <style>
      @import url('https://fonts.googleapis.com/css2?family=Dela+Gothic+One&amp;display=swap');
      .logo-text {
        font-family: 'Dela Gothic One', 'Hiragino Kaku Gothic ProN', 'Yu Gothic', sans-serif;
      }
    </style>
  </defs>

  <rect x="0" y="0" width="400" height="440" rx="80" fill="#FF6B2B"/>

  <line x1="263" y1="245" x2="348" y2="334" stroke="#FFFFFF" stroke-width="24" stroke-linecap="round"/>

  <circle cx="190" cy="170" r="106" fill="#FFFFFF"/>
  <circle cx="190" cy="170" r="95" fill="#FFD166"/>

  <rect x="122" y="110" width="142" height="94" rx="26" fill="#FFFFFF" opacity="0.93"/>

  <circle cx="154" cy="157" r="12" fill="#FF6B2B"/>
  <circle cx="192" cy="157" r="12" fill="#FF6B2B"/>
  <circle cx="230" cy="157" r="12" fill="#FF6B2B"/>

  <g transform="translate(52,72)">
    <polygon points="0,-18 4.5,-7 17,-7 8,2.5 10.5,16 0,9 -10.5,16 -8,2.5 -17,-7 -4.5,-7" fill="#FFD166"/>
  </g>
  <g transform="translate(342,66)">
    <polygon points="0,-13 3,-5 12,-5 5.5,1.5 7.5,11 0,6 -7.5,11 -5.5,1.5 -12,-5 -3,-5" fill="#FFFFFF" opacity="0.9"/>
  </g>
  <g transform="translate(368,195)">
    <polygon points="0,-9 2,-3 8,-3 3.5,1 5,8 0,4.5 -5,8 -3.5,1 -8,-3 -2,-3" fill="#FFD166" opacity="0.85"/>
  </g>
  <circle cx="42" cy="210" r="8" fill="#FFFFFF" opacity="0.68"/>
  <circle cx="62" cy="325" r="7" fill="#FFD166" opacity="0.72"/>
  <circle cx="355" cy="138" r="5" fill="#FFFFFF" opacity="0.62"/>
  <circle cx="340" cy="318" r="9" fill="#FFD166" opacity="0.68"/>

  <text x="200" y="392"
        class="logo-text"
        text-anchor="middle"
        font-size="31"
        fill="#FFFFFF"
        letter-spacing="4">プロンプト図鑑</text>
</svg>
